Coordinates
version=1
nRows=24
nColumns=19
inDegrees=yes

Units are S.I. units (second, meters, Newtons, ...)
If the header above contains a line with 'inDegrees', this indicates whether rotational values are in degrees (yes) or radians (no).

endheader
time	pelvis_tilt	pelvis_list	pelvis_rotation	pelvis_tx	pelvis_ty	pelvis_tz	hip_flexion_r	hip_adduction_r	hip_rotation_r	knee_angle_r	knee_angle_r_beta	ankle_angle_r	hip_flexion_l	hip_adduction_l	hip_rotation_l	knee_angle_l	knee_angle_l_beta	ankle_angle_l
     17.31333333	      5.13314013	      9.01999768	      9.79708867	      2.16253242	      1.03194095	      1.00528431	    -10.40927766	     -2.44464881	     -8.60175224	    104.63002237	      1.82613839	    -12.01281629	     22.87215228	     12.97940842	     -4.31094045	     33.64486213	      0.58721362	     -3.46199706
     17.32000000	      5.59739161	      9.81558643	     10.42204412	      2.15983024	      1.02573112	      1.00453091	     -9.20063795	     -3.83216389	     -9.02125254	    108.46632325	      1.89309447	    -11.13703824	     21.65669176	     13.96280930	     -3.62134155	     35.62039146	      0.62169311	     -0.77351854
     17.32666667	      5.20062994	     10.30433240	     11.20626727	      2.15685651	      1.01873287	      1.00366856	     -6.83233781	     -5.12116976	     -9.25586846	    112.27849157	      1.95962936	    -10.34685292	     21.38470614	     14.81247184	     -2.77197104	     37.71750601	      0.65829467	      2.07388935
     17.33333333	      4.90120797	     10.72668232	     11.83907257	      2.15365518	      1.01212255	      1.00310857	     -4.38636627	     -6.40319496	     -9.18506877	    115.86116599	      2.02215882	     -9.75751244	     20.92858543	     15.48882659	     -2.08589787	     39.74926404	      0.69375553	      5.14373666
     17.34000000	      4.63330100	     11.03084227	     12.54939673	      2.15057499	      1.00616285	      1.00263711	     -1.87605843	     -7.59679713	     -9.06937452	    119.03811096	      2.07760697	     -9.37208580	     20.27921436	     16.02294424	     -1.29899650	     41.63105588	      0.72659900	      8.24200404
     17.34666667	      7.25609716	     11.44137108	     14.24758879	      2.15092211	      1.00587116	      1.00159545	     -3.63361098	     -7.96394792	    -10.83968339	    119.89161325	      2.09250340	     -9.39821031	     15.52634431	     16.21229714	      1.08401446	     42.80280630	      0.74704990	     11.49221306
     17.35333333	     10.60449116	     11.79380771	     15.92868457	      2.15187565	      1.00750226	      1.00078990	     -6.24483391	     -7.88880034	    -12.83168737	    119.94744877	      2.09347791	     -9.62700006	      9.67001561	     15.72100884	      3.71723667	     43.50858349	      0.75936803	     14.57359232
     17.36000000	     13.47105938	     11.87813499	     17.26184501	      2.15214490	      1.00912034	      1.00032025	     -7.88777339	     -7.65238303	    -14.32801778	    119.96367612	      2.09376113	     -9.86361096	      4.42283055	     14.61428872	      5.96876251	     43.92062276	      0.76655948	     17.32790680
     17.36666667	     15.84152785	     11.62663328	     18.26676987	      2.15164525	      1.01069082	      1.00008364	     -8.52273570	     -7.29483586	    -15.35118653	    119.97079048	      2.09388530	    -10.09659736	     -0.11492501	     12.99177621	      7.74851642	     44.07516201	      0.76925670	     19.70163581
     17.37333333	     17.61234768	     11.02897144	     19.06400126	      2.15039694	      1.01214412	      0.99987108	     -8.10444736	     -6.89288929	    -16.03560272	    119.97432502	      2.09394699	    -10.21133909	     -3.83130850	     11.04540696	      9.15460495	     44.00341889	      0.76800454	     21.66461640
     17.38000000	     18.34489004	     10.00189746	     19.75022790	      2.14874979	      1.01332460	      0.99949940	     -6.18431295	     -6.51779747	    -16.42209064	    119.97625503	      2.09398067	    -10.22546324	     -6.30905722	      9.00901147	     10.35192072	     43.67519663	      0.76227598	     23.14545749
     17.38666667	     19.24291865	      8.93149888	     20.10745012	      2.14587336	      1.01443426	      0.99937076	     -4.20906511	     -6.18586758	    -16.61880754	    119.97638679	      2.09398297	     -9.93288468	     -8.76310504	      6.81027729	     10.95036790	     43.34795492	      0.75656454	     24.31801332
     17.39333333	     19.29098005	      7.86354107	     20.25545645	      2.14277625	      1.01536567	      0.99909937	     -1.21118119	     -6.27452904	    -16.54031402	    119.97551047	      2.09396768	     -9.46599616	    -10.47200383	      5.08001209	     11.51144543	     42.65317450	      0.74443833	     24.94907349
     17.40000000	     18.92605813	      6.79696555	     20.08050386	      2.13927375	      1.01605083	      0.99909306	      2.38717362	     -6.47554001	    -16.13456293	    119.97319949	      2.09392735	     -8.76275870	    -11.79198402	      3.62128299	     11.78358508	     41.80747944	      0.72967817	     25.23674780
     17.40666667	     17.02276594	      5.19065532	     19.32832745	      2.13635998	      1.01568826	      0.99954279	      8.10874019	     -6.48375165	    -15.04754350	    119.97045464	      2.09387944	     -8.12310420	    -11.28744722	      2.26423363	     11.01902552	     41.09518500	      0.71724629	     24.96313524
     17.41333333	     14.88363250	      4.17228083	     18.26896402	      2.13321444	      1.01504670	      1.00023751	     13.94048504	     -6.96355237	    -13.62832024	    119.96467274	      2.09377853	     -7.31457984	    -10.89263941	      1.71963106	     10.31251482	     40.12253112	      0.70027027	     24.26104761
     17.42000000	     12.05048555	      3.55456496	     16.80188753	      2.13039395	      1.01364282	      1.00135201	     20.53965035	     -7.65983722	    -11.63206382	    119.95402015	      2.09359260	     -6.45126288	     -9.97393013	      1.87240535	      9.27441876	     39.04925921	      0.68153814	     23.05603195
     17.42666667	      8.80060892	      3.51966119	     14.85826434	      2.12801240	      1.01150152	      1.00304107	     27.62328578	     -8.40871473	     -8.89197746	    119.92902292	      2.09315632	     -5.60741959	     -8.85859233	      2.74086816	      7.77039127	     37.81226942	      0.65994860	     21.33990048
     17.43333333	      5.34239326	      4.19555640	     12.72557255	      2.12621955	      1.00874737	      1.00498068	     34.86806832	     -9.22226208	     -5.59655718	    119.82030962	      2.09125891	     -4.80247096	     -7.73350262	      4.31175428	      6.04684718	     36.38131398	      0.63497372	     19.07337559
     17.44000000	      4.03630676	      4.51594237	     11.01397017	      2.12638378	      1.01008581	      1.00613752	     38.83995804	     -9.10836137	     -3.66049029	    118.41610579	      2.06675093	     -3.88044942	     -9.22353152	      4.84995340	      4.70079799	     34.05362781	      0.59434793	     16.13201339
     17.44666667	      3.89316874	      3.75800629	      9.74791097	      2.12829364	      1.01489628	      1.00652681	     40.64913634	     -7.92244219	     -3.36826081	    115.71964477	      2.01968881	     -2.98362074	    -11.97172827	      3.98129587	      3.53898010	     31.23035682	      0.54507255	     12.46741942
     17.45333333	      3.44644382	      2.98759151	      8.29296301	      2.13075877	      1.01952223	      1.00693082	     42.59686899	     -6.62913418	     -3.00732878	    112.82938561	      1.96924427	     -2.21742812	    -14.37413083	      3.26959117	      1.80630484	     28.36834604	      0.49512104	      8.27621682
     17.46000000	      3.20475215	      2.23385374	      6.87330493	      2.13354875	      1.02449615	      1.00710281	     44.01388323	     -5.41405513	     -2.85654752	    109.71070072	      1.91481295	     -1.48024881	    -16.95578743	      2.67642165	     -0.04419800	     25.48408367	      0.44478117	      3.52973602
     17.46666667	      3.32159735	      1.47351242	      5.49746077	      2.13655756	      1.02981725	      1.00688063	     44.74412667	     -4.31607947	     -2.94125991	    106.39268723	      1.85690269	     -0.74065741	    -19.81874396	      2.15566714	     -2.15889545	     22.68398968	      0.39591031	     -1.63942012
